# xmcd
# 
# Track frame offsets:
#     182
#     16345
#     36937
#     53995
#     69077
#     89362
#     105177
#     121735
#     136002
#     152207
#     167395
#     182747
# 
# Disc length: 2676
# 
# Revision: 1
# Processed by: cddbd v1.5.2PL0 Copyright (c) Steve Scherf et al.
# Submitted via: fre:ac v1.0.31
# 
DISCID=880a720c
DTITLE=Various Artist - Coyote Ugly
DYEAR=0
DGENRE=Country
TTITLE0=LeAnn Rimes - Can't Fight The Moonlight
TTITLE1=LeAnn Rimes - Please Remember
TTITLE2=LeAnn Rimes - The Right Kind Of Wrong
TTITLE3=LeAnn Rimes - But I Do Love You
TTITLE4=Don Henley - All She Wants To Do Is Dance
TTITLE5=EMF - Unbelievable
TTITLE6=Snap - The Power
TTITLE7=INXS - Need You Tonight
TTITLE8=The Charlie Daniels Band - The Devil Went Down To Georgia
TTITLE9=Rare Blend - Boom Boom Boom
TTITLE10=Tamara Walker - Didn't We Love
TTITLE11=Mary Griffin - We Can Get There
EXTD=
EXTT0=
EXTT1=
EXTT2=
EXTT3=
EXTT4=
EXTT5=
EXTT6=
EXTT7=
EXTT8=
EXTT9=
EXTT10=
EXTT11=
PLAYORDER=
